<svg xmlns="http://www.w3.org/2000/svg" viewBox="0 0 400 480" role="img" aria-label="Decorative floral illustration">
  <defs>
    <linearGradient id="bg2" x1="0" y1="0" x2="1" y2="1">
      <stop offset="0" stop-color="#FBF0E9"/>
      <stop offset="1" stop-color="#F0D5CB"/>
    </linearGradient>
  </defs>
  <rect width="400" height="480" fill="url(#bg2)"/>
  <g fill="none" stroke="#C9A96E" stroke-width="1.5" opacity="0.68" stroke-linecap="round">
    <path d="M200 410 C 194 345, 206 310, 200 255"/>
    <path d="M199 335 C 172 312, 158 280, 166 244"/>
    <path d="M201 345 C 228 320, 244 288, 238 250"/>
    <path d="M200 255 q -16 -22 0 -44 q 16 22 0 44"/>
    <path d="M166 244 q -18 -14 -10 -36 q 22 0 22 24"/>
    <path d="M238 250 q 18 -14 10 -36 q -22 0 -22 24"/>
    <circle cx="200" cy="205" r="9"/>
    <circle cx="167" cy="222" r="7"/>
    <circle cx="236" cy="228" r="7"/>
    <path d="M178 288 q 10 -14 22 -2"/>
    <path d="M208 292 q 12 -12 20 0"/>
    <path d="M186 402 q 14 10 30 0" opacity="0.8"/>
  </g>
  <g font-family="Georgia, 'Times New Roman', serif" text-anchor="middle">
    <circle cx="200" cy="110" r="26" fill="none" stroke="#C9A96E" opacity="0.6" stroke-width="1.3"/>
    <text x="200" y="119" font-size="26" fill="#B27680">T</text>
  </g>
</svg>
