<svg xmlns="http://www.w3.org/2000/svg" viewBox="0 0 400 480" role="img" aria-label="Decorative floral illustration">
  <defs>
    <linearGradient id="bg1" x1="0" y1="0" x2="1" y2="1">
      <stop offset="0" stop-color="#F9E7E2"/>
      <stop offset="1" stop-color="#EDC9C3"/>
    </linearGradient>
  </defs>
  <rect width="400" height="480" fill="url(#bg1)"/>
  <g fill="none" stroke="#C9A96E" stroke-width="1.5" opacity="0.68" stroke-linecap="round">
    <path d="M200 410 C 188 340, 212 305, 200 250"/>
    <path d="M200 330 C 168 305, 148 272, 154 238"/>
    <path d="M202 340 C 234 315, 256 282, 250 245"/>
    <circle cx="200" cy="228" r="26"/>
    <circle cx="200" cy="228" r="14"/>
    <circle cx="200" cy="228" r="5"/>
    <circle cx="152" cy="222" r="17"/>
    <circle cx="152" cy="222" r="8"/>
    <circle cx="251" cy="228" r="17"/>
    <circle cx="251" cy="228" r="8"/>
    <path d="M168 275 q 10 -14 24 -2"/>
    <path d="M212 280 q 12 -12 22 0"/>
    <path d="M186 402 q 14 10 30 0" opacity="0.8"/>
  </g>
  <g font-family="Georgia, 'Times New Roman', serif" text-anchor="middle">
    <circle cx="200" cy="110" r="26" fill="none" stroke="#C9A96E" opacity="0.6" stroke-width="1.3"/>
    <text x="200" y="119" font-size="26" fill="#B27680">T</text>
  </g>
</svg>
