<svg xmlns="http://www.w3.org/2000/svg" viewBox="0 0 400 480" role="img" aria-label="Decorative floral illustration">
  <defs>
    <linearGradient id="bg4" x1="0" y1="0" x2="1" y2="1">
      <stop offset="0" stop-color="#F8E3DE"/>
      <stop offset="1" stop-color="#EAC3BC"/>
    </linearGradient>
  </defs>
  <rect width="400" height="480" fill="url(#bg4)"/>
  <g fill="none" stroke="#C9A96E" stroke-width="1.5" opacity="0.68" stroke-linecap="round">
    <path d="M200 412 C 192 350, 208 315, 200 262"/>
    <circle cx="200" cy="235" r="30"/>
    <path d="M200 235 m -18 0 a 18 18 0 1 1 36 0 a 13 13 0 1 1 -26 0 a 8 8 0 1 1 16 0"/>
    <circle cx="154" cy="252" r="20"/>
    <path d="M154 252 m -11 0 a 11 11 0 1 1 22 0 a 7 7 0 1 1 -14 0"/>
    <circle cx="247" cy="252" r="20"/>
    <path d="M247 252 m -11 0 a 11 11 0 1 1 22 0 a 7 7 0 1 1 -14 0"/>
    <circle cx="200" cy="290" r="13"/>
    <path d="M170 310 q 12 -14 26 -2"/>
    <path d="M206 314 q 12 -12 22 0"/>
    <path d="M184 404 q 16 10 32 0" opacity="0.8"/>
  </g>
  <g font-family="Georgia, 'Times New Roman', serif" text-anchor="middle">
    <circle cx="200" cy="110" r="26" fill="none" stroke="#C9A96E" opacity="0.6" stroke-width="1.3"/>
    <text x="200" y="119" font-size="26" fill="#B27680">T</text>
  </g>
</svg>
