<svg xmlns="http://www.w3.org/2000/svg" viewBox="0 0 400 480" role="img" aria-label="Decorative floral illustration">
  <defs>
    <linearGradient id="bg3" x1="0" y1="0" x2="1" y2="1">
      <stop offset="0" stop-color="#FDF6EF"/>
      <stop offset="1" stop-color="#F2DCD4"/>
    </linearGradient>
  </defs>
  <rect width="400" height="480" fill="url(#bg3)"/>
  <g fill="none" stroke="#C9A96E" stroke-width="1.5" opacity="0.68" stroke-linecap="round">
    <path d="M200 415 L 200 300"/>
    <path d="M160 415 L 160 320"/>
    <path d="M240 415 L 240 320"/>
    <path d="M140 415 h 120" opacity="0.8"/>
    <path d="M136 440 h 128" opacity="0.5"/>
    <circle cx="200" cy="272" r="28"/>
    <circle cx="200" cy="272" r="15"/>
    <circle cx="200" cy="272" r="5"/>
    <circle cx="160" cy="298" r="19"/>
    <circle cx="160" cy="298" r="9"/>
    <circle cx="240" cy="298" r="19"/>
    <circle cx="240" cy="298" r="9"/>
    <path d="M175 246 q -12 -20 6 -34 q 16 12 6 32"/>
    <path d="M226 248 q 12 -20 -6 -34 q -16 12 -6 32"/>
  </g>
  <g font-family="Georgia, 'Times New Roman', serif" text-anchor="middle">
    <circle cx="200" cy="110" r="26" fill="none" stroke="#C9A96E" opacity="0.6" stroke-width="1.3"/>
    <text x="200" y="119" font-size="26" fill="#B27680">T</text>
  </g>
</svg>
